<?xml version="1.0" encoding="UTF-8" standalone="no"?>
<svg width="311px" height="357px" viewBox="0 0 311 357" version="1.1" xmlns="http://www.w3.org/2000/svg" xmlns:xlink="http://www.w3.org/1999/xlink" xmlns:sketch="http://www.bohemiancoding.com/sketch/ns">
    <!-- Generator: Sketch 3.3.2 (12043) - http://www.bohemiancoding.com/sketch -->
    <title>apis_and_ipas</title>
    <desc>Created with Sketch.</desc>
    <defs></defs>
    <g id="Page-1" stroke="none" stroke-width="1" fill="none" fill-rule="evenodd" sketch:type="MSPage">
        <g id="Icon" sketch:type="MSLayerGroup">
            <path d="M310.586068,89.7005246 L310.586068,267.777177 L155.401582,356.815504 L0.217066152,267.777177 L0.217066152,89.7005246 L155.401582,0.662198231 L310.586068,89.7005246 Z" id="outline" stroke-opacity="0" stroke="#FFFFFF" stroke-width="5.86025493" stroke-dasharray="12,4" fill="#DC3E33" sketch:type="MSShapeGroup"></path>
            <path d="M310.586068,89.7005246 L310.586068,267.777177 L155.401582,356.815504 L0.217066152,267.777177 L155.40158,178.738852 L310.586068,89.7005246 Z" id="outline-copy" stroke-opacity="0" stroke="#FFFFFF" stroke-width="5.86025493" stroke-dasharray="12,4" fill="#CF372C" sketch:type="MSShapeGroup"></path>
            <g id="Two-pints" transform="translate(34.135170, 57.321127)" sketch:type="MSShapeGroup">
                <path d="M120.307353,241.858562 L120.286889,241.858562 L120.307353,241.858562 M120.206237,241.858562 L120.17855,241.858562 L120.206237,241.858562 M120.100305,241.858562 L120.081044,241.858562 L120.100305,241.858562 M119.995577,241.857356 L119.978724,241.857356 L119.995577,241.857356 M119.88483,241.857356 L119.883626,241.857356 L119.88483,241.857356 M240.78805,121.282569 L240.78805,121.186108 L240.78805,121.282569 M240.78805,121.161993 L240.78805,121.092059 L240.78805,121.161993 M240.78805,121.042622 L240.78805,120.995598 L240.78805,121.042622 M240.786846,120.941339 L240.786846,120.900343 L240.786846,120.941339 M240.786846,120.838849 L240.786846,120.806293 L240.786846,120.838849 M240.786846,120.730331 L240.786846,120.71345 L240.786846,120.730331 M240.785643,120.63387 L240.785643,120.618195 L240.785643,120.63387 M240.785643,120.532586 L240.785643,120.525351 L240.785643,120.532586" id="Fill-42" fill="#E5E5E1"></path>
                <path d="M208.724387,130.812895 L200.098158,121.731111 C212.084113,110.311359 217.534792,101.692587 215.867568,96.8080535 L206.074885,68.1531687 C205.81487,67.3935399 205.571708,66.6761128 203.444644,67.4055975 L186.354697,73.264385 L182.302801,61.4069419 L199.393952,55.5481543 C207.615713,52.7302934 215.229569,56.2450836 217.91398,64.0957865 L227.705459,92.7494655 C231.265012,103.172054 225.41107,114.911333 208.724387,130.812895" id="Fill-44" fill="#FFFFFF"></path>
                <path d="M114.991498,68.6993779 L141.151865,164.237766 C142.549444,168.330115 146.996176,170.513747 151.085389,169.112654 L212.742577,147.976888 C216.829382,146.575795 219.009412,142.121718 217.609426,138.025751 L180.040914,46.4000537 L114.991498,68.6993779" id="Fill-45" fill="#FFFFFF"></path>
                <path d="M116.385465,60.5544696 L142.09201,158.155913 C143.402918,161.986612 147.560745,164.026758 151.385128,162.718509 L209.078295,142.939223 C212.902678,141.629767 214.941867,137.462661 213.632164,133.631962 L174.475877,40.6425501 L116.385465,60.5544696" id="Fill-46" fill="#EEA32D"></path>
                <path d="M172.069538,111.910197 C170.487782,111.910197 169.199746,110.632091 169.187708,109.044105 C169.17567,107.448885 170.456483,106.145458 172.04787,106.133401 L172.069538,106.133401 C172.528175,106.133401 172.962736,106.240713 173.347943,106.431224 L174.664869,110.286038 C174.200214,111.241 173.225158,111.901756 172.091205,111.910197 L172.069538,111.910197" id="Fill-47" fill="#F3B43D"></path>
                <path d="M143.354767,69.0020237 C141.771807,69.0020237 140.483771,67.7227124 140.47053,66.1359323 C140.458492,64.5407119 141.740509,63.2372854 143.334303,63.2252278 L143.355971,63.2252278 C144.937727,63.2252278 146.225762,64.5033334 146.2378,66.0913192 C146.251042,67.6877453 144.969025,68.9899661 143.377639,69.0020237 L143.354767,69.0020237" id="Fill-48" fill="#F3B43D"></path>
                <path d="M163.439698,77.4302856 C162.043323,77.2397755 160.961132,76.0448674 160.951502,74.590721 C160.944279,73.7973309 161.258464,73.0750807 161.772474,72.5493694 L163.439698,77.4302856" id="Fill-49" fill="#F3B43D"></path>
                <path d="M174.768394,124.035319 C173.691018,124.035319 172.813468,123.165966 172.805042,122.083193 C172.796616,120.996803 173.66935,120.111776 174.752745,120.103335 L174.770801,120.103335 C175.848177,120.103335 176.724523,120.973894 176.732949,122.054255 C176.741376,123.140645 175.869845,124.026878 174.784043,124.035319 L174.768394,124.035319" id="Fill-50" fill="#F3B43D"></path>
                <path d="M195.644203,84.455043 L194.956849,82.7778309 C195.378169,83.1359416 195.647814,83.6676817 195.652629,84.2645329 C195.652629,84.3296439 195.650222,84.3923435 195.644203,84.455043" id="Fill-51" fill="#D6594E"></path>
                <path d="M193.688074,86.2455965 L193.678444,86.2455965 L192.274846,82.912876 C192.628755,82.546325 193.123505,82.3172306 193.672425,82.3136133 L193.688074,82.3136133 C194.170786,82.3136133 194.613774,82.4884485 194.956849,82.7778309 L195.644203,84.455043 C195.556328,85.4534122 194.723318,86.2383619 193.703723,86.2455965 L193.688074,86.2455965" id="Fill-52" fill="#FFFFFE"></path>
                <path d="M193.678444,86.2455965 C192.604679,86.2407734 191.731945,85.3726263 191.723518,84.2946769 C191.719907,83.7581137 191.930567,83.269781 192.274846,82.912876 L193.678444,86.2455965" id="Fill-53" fill="#F3B43D"></path>
                <path d="M181.627485,143.171934 C180.550109,143.171934 179.670152,142.301376 179.661726,141.219809 C179.654503,140.131008 180.526034,139.247186 181.610632,139.238746 L181.626281,139.238746 C182.704861,139.238746 183.581207,140.106893 183.589633,141.189665 C183.598059,142.274849 182.726529,143.163494 181.640727,143.171934 L181.627485,143.171934" id="Fill-54" fill="#F3B43D"></path>
                <path d="M189.332828,91.8367053 L187.817279,88.2206312 C188.847708,88.5522152 189.59525,89.5156174 189.603676,90.6598836 C189.607288,91.0831053 189.509782,91.4834176 189.332828,91.8367053" id="Fill-55" fill="#F3B43D"></path>
                <path d="M151.119094,99.6813794 C149.702255,99.6813794 148.550246,98.5395247 148.539412,97.1191395 C148.528578,95.6915198 149.672161,94.5279614 151.09863,94.5159038 L151.117891,94.5159038 C152.533526,94.5159038 153.68674,95.6589643 153.697574,97.0805552 C153.708407,98.5069692 152.563621,99.6705276 151.138355,99.6813794 L151.119094,99.6813794" id="Fill-56" fill="#F3B43D"></path>
                <path d="M156.154472,117.443429 C155.821027,117.443429 155.50925,117.352997 155.240809,117.197454 L154.470395,114.941477 C154.737632,114.279515 155.382854,113.810474 156.138823,113.805651 L156.153268,113.805651 C157.151195,113.805651 157.962537,114.609893 157.970963,115.610674 C157.978186,116.616278 157.171659,117.434989 156.167713,117.443429 L156.154472,117.443429" id="Fill-57" fill="#F3B43D"></path>
                <path d="M164.529111,93.8310322 C163.992229,93.8310322 163.55526,93.3981644 163.551649,92.8591897 C163.546834,92.3178035 163.981395,91.8764954 164.521889,91.8716723 L164.530315,91.8716723 C165.067197,91.8716723 165.502963,92.3045401 165.507778,92.8435148 C165.511389,93.3861068 165.076828,93.8274149 164.536334,93.8310322 L164.529111,93.8310322" id="Fill-58" fill="#F3B43D"></path>
                <path d="M151.879878,156.844046 C149.300195,156.844046 146.890244,155.221093 146.006676,152.639561 L124.20637,69.8653478 L137.511659,65.3063695 L154.470395,114.941477 C154.383723,115.156102 154.336776,115.391226 154.33798,115.638406 C154.342795,116.305192 154.70513,116.883956 155.240809,117.197454 L167.120832,151.970365 L153.887769,156.508845 C153.223287,156.735528 152.545564,156.844046 151.879878,156.844046 M154.447523,138.522524 L154.423448,138.522524 C152.829654,138.534582 151.547637,139.836802 151.560879,141.434434 C151.571713,143.020009 152.858545,144.298114 154.440301,144.298114 L154.466784,144.298114 C156.05817,144.286057 157.340187,142.983836 157.326945,141.389821 C157.314908,139.801835 156.028076,138.522524 154.447523,138.522524 M139.572516,112.862747 L139.549644,112.862747 C137.958258,112.874805 136.677445,114.177025 136.688279,115.773451 C136.701521,117.360232 137.989556,118.638337 139.572516,118.638337 L139.59298,118.638337 C141.187978,118.626279 142.468791,117.324059 142.455549,115.728838 C142.443512,114.140853 141.15668,112.862747 139.572516,112.862747 M142.252112,86.860534 L142.237667,86.860534 C141.150661,86.8677686 140.27913,87.7540021 140.287557,88.8415976 C140.294779,89.9231643 141.172329,90.7925172 142.250908,90.7925172 L142.266557,90.7925172 C143.349952,90.7840769 144.222686,89.8978433 144.21426,88.8114536 C144.205833,87.7298869 143.328284,86.860534 142.252112,86.860534" id="Fill-59" fill="#F3B43D"></path>
                <path d="M154.440301,144.298114 C152.858545,144.298114 151.571713,143.020009 151.560879,141.434434 C151.547637,139.836802 152.829654,138.534582 154.423448,138.522524 L154.447523,138.522524 C156.028076,138.522524 157.314908,139.801835 157.326945,141.389821 C157.340187,142.983836 156.05817,144.286057 154.466784,144.298114 L154.440301,144.298114" id="Fill-60" fill="#F6C15D"></path>
                <path d="M139.572516,118.638337 C137.989556,118.638337 136.701521,117.360232 136.688279,115.773451 C136.677445,114.177025 137.958258,112.874805 139.549644,112.862747 L139.572516,112.862747 C141.15668,112.862747 142.443512,114.140853 142.455549,115.728838 C142.468791,117.324059 141.187978,118.626279 139.59298,118.638337 L139.572516,118.638337" id="Fill-61" fill="#F6C15D"></path>
                <path d="M142.250908,90.7925172 C141.172329,90.7925172 140.294779,89.9231643 140.287557,88.8415976 C140.27913,87.7540021 141.150661,86.8677686 142.237667,86.860534 L142.252112,86.860534 C143.328284,86.860534 144.205833,87.7298869 144.21426,88.8114536 C144.222686,89.8978433 143.349952,90.7840769 142.266557,90.7925172 L142.250908,90.7925172" id="Fill-62" fill="#F6C15D"></path>
                <path d="M155.240809,117.197454 C154.70513,116.883956 154.342795,116.305192 154.33798,115.638406 C154.336776,115.391226 154.383723,115.156102 154.470395,114.941477 L155.240809,117.197454" id="Fill-63" fill="#F6C15D"></path>
                <path d="M186.623138,145.284426 L174.664869,110.286038 C174.853862,109.897783 174.957386,109.461298 174.953775,108.999492 C174.945348,107.872107 174.292904,106.900264 173.347943,106.431224 L163.439698,77.4302856 C163.567298,77.448372 163.698509,77.4568123 163.830924,77.4568123 L163.854999,77.4568123 C165.448793,77.4447547 166.729606,76.142534 166.718772,74.5473136 C166.705531,72.9593278 165.417495,71.6800165 163.833331,71.6800165 L163.811664,71.6800165 C163.011155,71.6860453 162.290096,72.018835 161.772474,72.5493694 L157.012761,58.6204306 L173.099966,53.1052847 L187.817279,88.2206312 C187.568098,88.1398453 187.302065,88.096438 187.026401,88.096438 C187.020382,88.096438 187.01316,88.096438 187.005937,88.0976437 C185.579468,88.1072898 184.434681,89.2720539 184.445515,90.6996737 C184.457552,92.1200589 185.608358,93.2631193 187.025197,93.2631193 L187.044458,93.2631193 C188.048403,93.254679 188.912711,92.6759142 189.332828,91.8367053 L207.0054,134.006953 C206.944008,136.531814 205.344196,138.868577 202.817479,139.733107 L186.623138,145.284426 M187.314103,127.696006 L187.290027,127.696006 C185.698641,127.708063 184.417828,129.010284 184.428662,130.60671 C184.441903,132.192284 185.728735,133.471596 187.309288,133.471596 L187.333363,133.471596 C188.928361,133.459538 190.209174,132.157317 190.195932,130.563303 C190.185098,128.974111 188.897062,127.696006 187.314103,127.696006 M179.346338,93.3209958 L179.339115,93.3209958 C178.799825,93.324613 178.36406,93.7671269 178.368875,94.3085131 C178.372486,94.8474878 178.810659,95.2803556 179.346338,95.2803556 L179.354764,95.2803556 C179.895258,95.2767384 180.328615,94.8354302 180.325004,94.294044 C180.320189,93.7550693 179.884424,93.3209958 179.346338,93.3209958 M174.353093,87.6020764 L174.344666,87.6020764 C173.805376,87.6056937 173.370815,88.0470018 173.374426,88.588388 C173.379241,89.1273627 173.817414,89.5614363 174.353093,89.5614363 L174.360315,89.5614363 C174.900809,89.5566132 175.33537,89.1153051 175.330555,88.5739189 C175.326944,88.0349442 174.889975,87.6020764 174.353093,87.6020764" id="Fill-64" fill="#F3B43D"></path>
                <path d="M174.664869,110.286038 L173.347943,106.431224 C174.292904,106.900264 174.945348,107.872107 174.953775,108.999492 C174.957386,109.461298 174.853862,109.897783 174.664869,110.286038" id="Fill-65" fill="#F6C15D"></path>
                <path d="M187.309288,133.471596 C185.728735,133.471596 184.441903,132.192284 184.428662,130.60671 C184.417828,129.010284 185.698641,127.708063 187.290027,127.696006 L187.314103,127.696006 C188.897062,127.696006 190.185098,128.974111 190.195932,130.563303 C190.209174,132.157317 188.928361,133.459538 187.333363,133.471596 L187.309288,133.471596" id="Fill-66" fill="#F6C15D"></path>
                <path d="M163.830924,77.4568123 C163.698509,77.4568123 163.567298,77.448372 163.439698,77.4302856 L161.772474,72.5493694 C162.290096,72.018835 163.011155,71.6860453 163.811664,71.6800165 L163.833331,71.6800165 C165.417495,71.6800165 166.705531,72.9593278 166.718772,74.5473136 C166.729606,76.142534 165.448793,77.4447547 163.854999,77.4568123 L163.830924,77.4568123" id="Fill-67" fill="#F6C15D"></path>
                <path d="M187.025197,93.2631193 C185.608358,93.2631193 184.457552,92.1200589 184.445515,90.6996737 C184.434681,89.2720539 185.579468,88.1072898 187.005937,88.0976437 C187.01316,88.096438 187.020382,88.096438 187.026401,88.096438 C187.302065,88.096438 187.568098,88.1398453 187.817279,88.2206312 L189.332828,91.8367053 C188.912711,92.6759142 188.048403,93.254679 187.044458,93.2631193 L187.025197,93.2631193" id="Fill-68" fill="#F6C15D"></path>
                <path d="M174.353093,89.5614363 C173.817414,89.5614363 173.379241,89.1273627 173.374426,88.588388 C173.370815,88.0470018 173.805376,87.6056937 174.344666,87.6020764 L174.353093,87.6020764 C174.889975,87.6020764 175.326944,88.0349442 175.330555,88.5739189 C175.33537,89.1153051 174.900809,89.5566132 174.360315,89.5614363 L174.353093,89.5614363" id="Fill-69" fill="#F6C15D"></path>
                <path d="M179.346338,95.2803556 C178.810659,95.2803556 178.372486,94.8474878 178.368875,94.3085131 C178.36406,93.7671269 178.799825,93.324613 179.339115,93.3209958 L179.346338,93.3209958 C179.884424,93.3209958 180.320189,93.7550693 180.325004,94.294044 C180.328615,94.8354302 179.895258,95.2767384 179.354764,95.2803556 L179.346338,95.2803556" id="Fill-70" fill="#F6C15D"></path>
                <path d="M133.380314,62.1484842 C130.587564,53.9722261 121.704932,49.613404 113.540953,52.410767 C105.37938,55.2093358 101.025338,64.1066383 103.820496,72.2816907 C106.61445,80.4591546 115.495878,84.8179767 123.658654,82.0194079 C131.82143,79.2220449 136.175472,70.3247423 133.380314,62.1484842" id="Fill-71" fill="#F9FAFB"></path>
                <path d="M152.090538,55.7350471 C149.772074,48.9514417 142.402583,45.3329562 135.62896,47.6540441 C128.855336,49.9763377 125.244021,57.3592058 127.561282,64.1440169 C129.88095,70.9276223 137.25044,74.5473136 144.024064,72.2238142 C150.797687,69.9027263 154.410206,62.5198583 152.090538,55.7350471" id="Fill-72" fill="#F9FAFB"></path>
                <path d="M136.353631,49.7725643 C134.371019,43.9752705 128.072885,40.883702 122.282743,42.8671771 C116.493805,44.851858 113.408538,51.1615997 115.389946,56.9600992 C117.371354,62.7585987 123.669488,65.851373 129.458426,63.8666921 C135.247364,61.8820113 138.333835,55.5722695 136.353631,49.7725643" id="Fill-73" fill="#F9FAFB"></path>
                <path d="M168.100702,46.5531852 C165.691955,39.50793 158.038374,35.7495762 151.004736,38.1610961 C143.969894,40.572616 140.220145,48.2400434 142.626485,55.2840929 C145.036436,62.330554 152.688813,66.0877019 159.721247,63.676182 C166.756089,61.2646622 170.507042,53.5996463 168.100702,46.5531852" id="Fill-74" fill="#F9FAFB"></path>
                <path d="M183.043121,45.1243597 C181.099029,39.4343786 174.916458,36.3994808 169.234655,38.3467831 C163.554056,40.2940854 160.524163,46.4868684 162.468254,52.1768496 C164.413549,57.8692422 170.594917,60.9029342 176.27672,58.9556319 C181.958522,57.0083296 184.987212,50.8155466 183.043121,45.1243597" id="Fill-75" fill="#F9FAFB"></path>
                <path d="M187.427257,43.9969742 C185.999584,39.8214275 181.464976,37.5943889 177.296314,39.0232145 C173.127653,40.4508342 170.90549,44.9953434 172.33196,49.1708901 C173.758429,53.3452309 178.293037,55.5710638 182.461699,54.143444 C186.631564,52.7134127 188.852523,48.1713151 187.427257,43.9969742" id="Fill-76" fill="#F9FAFB"></path>
                <path d="M192.13882,55.7326356 C190.591973,51.2086243 185.680584,48.794693 181.162829,50.3440945 C176.647481,51.8910845 174.241142,56.8129965 175.784377,61.3370078 C177.332428,65.8598133 182.243816,68.2725389 186.759164,66.7231374 C191.276919,65.1749416 193.684463,60.2542354 192.13882,55.7326356" id="Fill-77" fill="#F9FAFB"></path>
                <path d="M184.417828,61.1923166 C183.168313,57.5376582 179.201885,55.5903559 175.553253,56.840729 C171.905825,58.0898963 169.961733,62.0664925 171.210045,65.7199451 C172.458356,69.372192 176.427191,71.3207 180.073416,70.0715327 C183.720844,68.8199539 185.664935,64.8445634 184.417828,61.1923166" id="Fill-78" fill="#F9FAFB"></path>
                <path d="M190.429464,70.7371122 C189.294307,67.4224782 185.698641,65.6584514 182.390676,66.7930715 C179.085119,67.9252801 177.321594,71.5280907 178.455547,74.8403133 C179.584684,78.15133 183.182758,79.9201799 186.489519,78.7855598 C189.79628,77.6521454 191.557398,74.048129 190.429464,70.7371122" id="Fill-79" fill="#F9FAFB"></path>
                <path d="M30.2291155,151.945044 L39.3681504,143.381737 C28.0683453,131.28073 23.1268623,122.359312 25.0769725,117.580886 L36.5188227,89.5457614 C36.8209694,88.8018075 37.1086709,88.1000552 39.1863809,88.9525275 L55.9103814,95.7988324 L60.6436118,84.1982161 L43.9232226,77.3507054 C35.8772124,74.0577751 28.0707528,77.1228168 24.9361312,84.8035076 L13.494281,112.837426 C9.33284216,123.034538 14.4946153,135.095754 30.2291155,151.945044" id="Fill-80" fill="#FFFFFF"></path>
                <path d="M127.414422,95.4069604 L95.7419839,189.254873 C94.1060582,193.260408 89.540152,195.179978 85.5448337,193.54135 L25.2190176,168.841358 C21.2200879,167.205141 19.3036833,162.631694 20.9372016,158.628571 L63.7746221,69.3492825 L127.414422,95.4069604" id="Fill-81" fill="#FFFFFF"></path>
                <path d="M126.560948,87.6695989 L95.3435355,183.233308 C93.8207643,186.965135 89.5654312,188.754483 85.8373502,187.226785 L29.6115806,164.208828 C25.8871109,162.68113 24.0995099,158.418769 25.6234849,154.68453 L69.9511748,64.4912758 L126.560948,87.6695989" id="Fill-82" fill="#EEA32D"></path>
                <path d="M70.6264907,174.768873 C69.0423271,174.768873 67.7542914,173.493179 67.7410499,171.905194 C67.7290122,170.308767 69.0110291,169.004135 70.6048228,168.992078 L70.6264907,168.992078 C71.48478,168.992078 72.2576014,169.36948 72.7860572,169.968743 L70.8287244,174.761639 C70.7697396,174.766462 70.709551,174.768873 70.6481586,174.768873 L70.6264907,174.768873" id="Fill-83" fill="#F3B43D"></path>
                <path d="M85.4027886,139.051853 C85.4726074,138.592458 85.6507656,138.168031 85.9107803,137.806303 L85.4027886,139.051853" id="Fill-84" fill="#F3B43D"></path>
                <path d="M104.324876,163.821779 L105.830795,159.360467 C106.170258,159.830714 106.373696,160.407067 106.378511,161.032856 C106.388141,162.345929 105.521425,163.462463 104.324876,163.821779" id="Fill-85" fill="#D6594E"></path>
                <path d="M103.49307,163.943561 C102.869516,163.943561 102.291706,163.74461 101.819827,163.406998 L103.531591,158.166765 C104.476552,158.178823 105.313173,158.645452 105.830795,159.360467 L104.324876,163.821779 C104.068473,163.898948 103.796421,163.941149 103.515942,163.943561 L103.49307,163.943561" id="Fill-86" fill="#FFFFFE"></path>
                <path d="M101.819827,163.406998 C101.093953,162.887315 100.618463,162.03846 100.610037,161.077469 C100.599203,159.481043 101.880016,158.178823 103.471402,158.166765 L103.494274,158.166765 L103.531591,158.166765 L101.819827,163.406998" id="Fill-87" fill="#F3B43D"></path>
                <path d="M59.0642633,99.4341986 C57.7040013,99.2099273 56.6639425,98.0331056 56.6519048,96.6066916 C56.6398671,95.0102654 57.921884,93.7080447 59.5156777,93.6959871 L59.5373456,93.6959871 C60.2933143,93.6959871 60.9818717,93.987781 61.4958822,94.4652619 L59.0642633,99.4341986" id="Fill-88" fill="#F3B43D"></path>
                <path d="M80.0135026,107.927572 C78.4317466,107.927572 77.1437108,106.649466 77.1328769,105.06148 C77.1316731,104.94211 77.137692,104.823946 77.1509335,104.706987 L77.7395778,103.266104 C78.2620148,102.59329 79.0757644,102.15801 79.9930385,102.150776 L80.0135026,102.150776 C81.5976662,102.150776 82.8869057,103.428881 82.8989434,105.018073 C82.9121849,106.613293 81.630168,107.915514 80.0363743,107.927572 L80.0135026,107.927572" id="Fill-89" fill="#F3B43D"></path>
                <path d="M97.197344,93.4608639 C96.1199683,93.4608639 95.2424187,92.5903052 95.2339923,91.5087386 C95.2255659,90.4223489 96.0995041,89.5361153 97.1828987,89.527675 L97.197344,89.527675 C98.2771272,89.527675 99.153473,90.3982337 99.1606956,91.4798003 C99.169122,92.56619 98.2987951,93.4524236 97.2117892,93.4608639 L97.197344,93.4608639" id="Fill-90" fill="#F3B43D"></path>
                <path d="M98.5202891,173.507649 L99.4640461,170.617442 C99.6566496,170.918882 99.7686004,171.275787 99.7710079,171.660424 C99.7782305,172.499633 99.2582011,173.220678 98.5202891,173.507649" id="Fill-91" fill="#FFFFFE"></path>
                <path d="M97.8040449,173.641488 C96.727873,173.641488 95.8515272,172.770929 95.8443045,171.691774 C95.8358781,170.602973 96.7074089,169.717945 97.7920072,169.708299 L97.8040449,169.708299 C98.5022325,169.708299 99.1149523,170.070027 99.4640461,170.617442 L98.5202891,173.507649 C98.3036102,173.592052 98.0676709,173.639076 97.8208977,173.641488 L97.8040449,173.641488" id="Fill-92" fill="#F3B43D"></path>
                <path d="M80.6418715,131.298816 C79.2250321,131.298816 78.0742264,130.155756 78.0633924,128.735371 C78.0513547,127.307751 79.1973454,126.142987 80.6226111,126.132135 L80.6418715,126.132135 C82.0587108,126.132135 83.2107203,127.275195 83.2215543,128.695581 C83.2323882,130.121995 82.0876013,131.287965 80.6611318,131.298816 L80.6418715,131.298816" id="Fill-93" fill="#F3B43D"></path>
                <path d="M72.3322353,147.912982 C71.336716,147.912982 70.5265777,147.108741 70.5205588,146.109166 C70.5121324,145.103562 71.3186595,144.283645 72.3214013,144.273999 L72.3346428,144.273999 C73.3325696,144.273999 74.1439117,145.081858 74.1523381,146.082639 C74.1595607,147.088243 73.3530337,147.905748 72.3490881,147.912982 L72.3322353,147.912982" id="Fill-94" fill="#F3B43D"></path>
                <path d="M90.5356712,120.032196 C89.9987891,120.032196 89.5606162,119.599328 89.5558011,119.060353 C89.5521897,118.517761 89.9867513,118.076453 90.5272448,118.072836 L90.5356712,118.072836 C91.0725534,118.072836 91.5083188,118.506909 91.5119301,119.045884 C91.5167452,119.58727 91.0833874,120.027373 90.5416901,120.032196 L90.5356712,120.032196" id="Fill-95" fill="#F3B43D"></path>
                <path d="M80.7116902,124.301791 C80.174808,124.301791 79.7366351,123.868924 79.7330238,123.329949 C79.7282087,122.787357 80.1627703,122.346049 80.70206,122.342432 L80.7104864,122.342432 C81.2485724,122.342432 81.6843378,122.775299 81.6891529,123.314274 C81.6927642,123.85566 81.2582026,124.296968 80.7177091,124.301791 L80.7116902,124.301791" id="Fill-96" fill="#F3B43D"></path>
                <path d="M72.9642154,133.317258 C72.4273332,133.317258 71.9891603,132.884391 71.985549,132.34421 C71.9807339,131.802824 72.4177031,131.361516 72.955789,131.357899 L72.9642154,131.357899 C73.5010976,131.357899 73.936863,131.791972 73.9416781,132.330947 C73.9452894,132.872333 73.5119315,133.312435 72.971438,133.317258 L72.9642154,133.317258" id="Fill-97" fill="#F3B43D"></path>
                <path d="M85.822905,181.259479 C85.0404533,181.259479 84.2447602,181.111171 83.4755501,180.795262 L70.5289852,175.497152 L70.8287244,174.761639 C72.3358466,174.656738 73.5203579,173.394307 73.5083202,171.86058 C73.5023014,171.134713 73.230249,170.472751 72.7860572,169.968743 L85.4027886,139.051853 C85.379917,139.202573 85.3678792,139.358116 85.3702868,139.51607 C85.3811207,141.101645 86.6703602,142.380956 88.2521163,142.380956 L88.2737842,142.380956 C89.8675779,142.368898 91.1483911,141.065472 91.1351496,139.470251 C91.1243156,137.88106 89.8350761,136.602954 88.2521163,136.602954 C88.2436899,136.602954 88.2364673,136.602954 88.2292446,136.60416 C87.2734499,136.611395 86.4296059,137.084053 85.9107803,137.806303 L105.132607,90.7044967 L118.147787,96.0327498 L91.5697112,177.395019 C90.5874334,179.801715 88.2689691,181.259479 85.822905,181.259479 M109.869449,112.783167 C109.864634,112.783167 109.859819,112.783167 109.8538,112.784373 C108.769202,112.791607 107.896467,113.679046 107.904893,114.765436 C107.91332,115.847003 108.790869,116.716356 109.869449,116.716356 L109.885098,116.716356 C110.969696,116.709121 111.842431,115.822888 111.834004,114.735292 C111.825578,113.653725 110.948028,112.783167 109.869449,112.783167" id="Fill-98" fill="#F3B43D"></path>
                <path d="M70.8287244,174.761639 L72.7860572,169.968743 C73.230249,170.472751 73.5023014,171.134713 73.5083202,171.86058 C73.5203579,173.394307 72.3358466,174.656738 70.8287244,174.761639" id="Fill-99" fill="#F6C15D"></path>
                <path d="M88.2521163,142.380956 C86.6703602,142.380956 85.3811207,141.101645 85.3702868,139.51607 C85.3678792,139.358116 85.379917,139.202573 85.4027886,139.051853 L85.9107803,137.806303 C86.4296059,137.084053 87.2734499,136.611395 88.2292446,136.60416 C88.2364673,136.602954 88.2436899,136.602954 88.2521163,136.602954 C89.8350761,136.602954 91.1243156,137.88106 91.1351496,139.470251 C91.1483911,141.065472 89.8675779,142.368898 88.2737842,142.380956 L88.2521163,142.380956" id="Fill-100" fill="#F6C15D"></path>
                <path d="M109.869449,116.716356 C108.790869,116.716356 107.91332,115.847003 107.904893,114.765436 C107.896467,113.679046 108.769202,112.791607 109.8538,112.784373 C109.859819,112.783167 109.864634,112.783167 109.869449,112.783167 C110.948028,112.783167 111.825578,113.653725 111.834004,114.735292 C111.842431,115.822888 110.969696,116.709121 109.885098,116.716356 L109.869449,116.716356" id="Fill-101" fill="#F6C15D"></path>
                <path d="M51.451611,167.680211 L35.6063638,161.19684 C33.1350204,160.185207 31.6724378,157.756807 31.7591094,155.231945 L59.0642633,99.4341986 C59.2183461,99.4595196 59.3748364,99.4727829 59.5361418,99.4727829 L59.5590135,99.4727829 C61.1503997,99.4607253 62.4324166,98.1585046 62.4191751,96.5620785 C62.4131563,95.7337214 62.0580436,94.9885617 61.4958822,94.4652619 L70.3135101,76.448797 L86.0540291,82.8923781 L77.7395778,103.266104 C77.4229859,103.673651 77.2123258,104.168012 77.1509335,104.706987 L51.451611,167.680211 M55.7526873,143.3323 L55.7310194,143.3323 C54.1396332,143.344358 52.8588201,144.646579 52.8696541,146.243005 C52.8828955,147.829785 54.1709313,149.109096 55.7526873,149.109096 L55.775559,149.109096 C57.3693527,149.097039 58.6489621,147.794818 58.6369244,146.200803 C58.6260904,144.611612 57.3368509,143.3323 55.7526873,143.3323 M44.7357685,132.552807 L44.7165082,132.552807 C43.2900387,132.563659 42.1452518,133.727217 42.1560857,135.156042 C42.1681234,136.576428 43.3189292,137.717076 44.7357685,137.717076 L44.7550289,137.717076 C46.1802946,137.70743 47.3250815,136.543872 47.3142476,135.116252 C47.3034136,133.693456 46.1514041,132.552807 44.7357685,132.552807 M58.4322832,117.331293 L58.4178379,117.331293 C57.3332396,117.339734 56.4605051,118.223556 56.4689315,119.312357 C56.4773579,120.392718 57.3537037,121.264482 58.433487,121.264482 L58.4479322,121.264482 C59.5325305,121.256042 60.4040613,120.368603 60.3956349,119.282213 C60.3884122,118.19944 59.5096589,117.331293 58.4322832,117.331293" id="Fill-102" fill="#F3B43D"></path>
                <path d="M59.5361418,99.4727829 C59.3748364,99.4727829 59.2183461,99.4595196 59.0642633,99.4341986 L61.4958822,94.4652619 C62.0580436,94.9885617 62.4131563,95.7337214 62.4191751,96.5620785 C62.4324166,98.1585046 61.1503997,99.4607253 59.5590135,99.4727829 L59.5361418,99.4727829" id="Fill-103" fill="#F6C15D"></path>
                <path d="M55.7526873,149.109096 C54.1709313,149.109096 52.8828955,147.829785 52.8696541,146.243005 C52.8588201,144.646579 54.1396332,143.344358 55.7310194,143.3323 L55.7526873,143.3323 C57.3368509,143.3323 58.6260904,144.611612 58.6369244,146.200803 C58.6489621,147.794818 57.3693527,149.097039 55.775559,149.109096 L55.7526873,149.109096" id="Fill-104" fill="#F6C15D"></path>
                <path d="M77.1509335,104.706987 C77.2123258,104.168012 77.4229859,103.673651 77.7395778,103.266104 L77.1509335,104.706987" id="Fill-105" fill="#F6C15D"></path>
                <path d="M58.433487,121.264482 C57.3537037,121.264482 56.4773579,120.392718 56.4689315,119.312357 C56.4605051,118.223556 57.3332396,117.339734 58.4178379,117.331293 L58.4322832,117.331293 C59.5096589,117.331293 60.3884122,118.19944 60.3956349,119.282213 C60.4040613,120.368603 59.5325305,121.256042 58.4479322,121.264482 L58.433487,121.264482" id="Fill-106" fill="#F6C15D"></path>
                <path d="M44.7357685,137.717076 C43.3189292,137.717076 42.1681234,136.576428 42.1560857,135.156042 C42.1452518,133.727217 43.2900387,132.563659 44.7165082,132.552807 L44.7357685,132.552807 C46.1514041,132.552807 47.3034136,133.693456 47.3142476,135.116252 C47.3250815,136.543872 46.1802946,137.70743 44.7550289,137.717076 L44.7357685,137.717076" id="Fill-107" fill="#F6C15D"></path>
                <path d="M109.440906,87.794998 C112.703128,79.7947808 121.826513,75.96167 129.809927,79.2316909 C137.795749,82.5017119 141.624947,91.6365491 138.361522,99.6355605 C135.095689,107.635778 125.974711,111.468889 117.988889,108.200073 C110.003068,104.928847 106.175073,95.7928036 109.440906,87.794998" id="Fill-108" fill="#F9FAFB"></path>
                <path d="M91.1351496,80.2999942 C93.8424322,73.6622858 101.411749,70.4802853 108.038512,73.1932452 C114.662868,75.9074108 117.840825,83.4868177 115.131135,90.1257319 C112.422649,96.7622346 104.854536,99.9442351 98.2277726,97.2312752 C91.6010092,94.5183154 88.4266632,86.9364969 91.1351496,80.2999942" id="Fill-109" fill="#F9FAFB"></path>
                <path d="M107.192261,75.2671523 C109.507114,69.5940518 115.976183,66.8738574 121.639929,69.1937395 C127.302471,71.5124159 130.01818,77.990964 127.700919,83.6640645 C125.386066,89.3383707 118.919405,92.0573593 113.254455,89.738683 C107.589505,87.4188009 104.877408,80.9402528 107.192261,75.2671523" id="Fill-110" fill="#F9FAFB"></path>
                <path d="M75.6871471,70.1981375 C78.4991578,63.304808 86.3597871,60.0010258 93.2417501,62.8188867 C100.121305,65.6367477 103.420844,73.5091543 100.607629,80.4024838 C97.793211,87.2958134 89.9337854,90.5995956 83.05423,87.7817346 C76.1722671,84.9626679 72.8727288,77.0914671 75.6871471,70.1981375" id="Fill-111" fill="#F9FAFB"></path>
                <path d="M60.8530681,67.8999591 C63.1245854,62.3329655 69.4708699,59.6646188 75.0310915,61.9410935 C80.5901093,64.2163625 83.2528523,70.5743346 80.9825389,76.1413282 C78.7086141,81.7095276 72.3611258,84.3778743 66.802108,82.1026053 C61.2430902,79.8273363 58.5803471,73.4669527 60.8530681,67.8999591" id="Fill-112" fill="#F9FAFB"></path>
                <path d="M56.5411578,66.5181582 C58.2083816,62.4330436 62.8657744,60.4748894 66.9453568,62.1448669 C71.0225316,63.8136387 72.9762531,68.4799296 71.3090293,72.5650443 C69.6418055,76.6489532 64.9856164,78.6071073 60.9072378,76.9371298 C56.8288592,75.2659465 54.8727302,70.6020671 56.5411578,66.5181582" id="Fill-113" fill="#F9FAFB"></path>
                <path d="M51.1554831,77.9596142 C52.9611407,73.5320637 58.0049442,71.411132 62.4239902,73.2197719 C66.8418324,75.0284118 68.9604707,80.0829575 67.1536093,84.5093022 C65.3479517,88.9332354 60.3017407,91.0541671 55.8851022,89.2455272 C51.4648525,87.4368873 49.3486218,82.3823416 51.1554831,77.9596142" id="Fill-114" fill="#F9FAFB"></path>
                <path d="M58.5454377,83.8593976 C60.004409,80.2843194 64.0779726,78.573346 67.6471557,80.0323155 C71.2151351,81.4949023 72.9268985,85.5763997 71.4679272,89.1514779 C70.0089558,92.7241446 65.9329848,94.4375295 62.3638016,92.9761484 C58.797026,91.5159731 57.0864664,87.4344758 58.5454377,83.8593976" id="Fill-115" fill="#F9FAFB"></path>
                <path d="M51.9896969,93.0388479 C53.312642,89.7965595 57.0058137,88.2435407 60.2403483,89.5686708 C63.4772905,90.8925952 65.0265447,94.5930725 63.7023958,97.8341552 C62.3818582,101.072826 58.686279,102.628257 55.4541519,101.303127 C52.216006,99.9779963 50.6679556,96.2775191 51.9896969,93.0388479" id="Fill-116" fill="#F9FAFB"></path>
            </g>
            <g id="Text" transform="translate(2.982125, 41.230986)" font-weight="normal" font-family="American Captain" fill="#FFFFFF" font-size="48" sketch:type="MSTextLayer">
                <text id="APIs" transform="translate(259.309359, 218.869938) rotate(-30.000000) translate(-259.309359, -218.869938) ">
                    <tspan x="222.261748" y="235.869938">APIs</tspan>
                </text>
                <text id="IPAs" transform="translate(58.260385, 55.309859) rotate(-30.000000) translate(-58.260385, -55.309859) ">
                    <tspan x="12.0775084" y="65.1070423">IPAs</tspan>
                </text>
            </g>
        </g>
    </g>
</svg>